<?xml version="1.0" encoding="UTF-8"?>
<svg xmlns="http://www.w3.org/2000/svg" xmlns:xlink="http://www.w3.org/1999/xlink" width="24pt" height="24pt" viewBox="0 0 24 24" version="1.1">
<g id="surface1">
<path style=" stroke:none;fill-rule:nonzero;fill:rgb(100%,100%,100%);fill-opacity:1;" d="M 17.53125 24 C 16.226562 24 14.984375 23.621094 13.914062 22.894531 C 10.453125 23.5 6.816406 22.460938 4.175781 19.824219 C 1.539062 17.183594 0.5 13.546875 1.105469 10.082031 C 0.378906 9.015625 0 7.773438 0 6.46875 C 0 2.902344 2.902344 0 6.46875 0 C 7.773438 0 9.015625 0.378906 10.082031 1.105469 C 17.632812 -0.214844 24.21875 6.339844 22.894531 13.914062 C 23.621094 14.984375 24 16.226562 24 17.53125 C 24 21.097656 21.097656 24 17.53125 24 Z M 14.710938 21.160156 C 15.523438 21.789062 16.5 22.125 17.53125 22.125 C 20.0625 22.125 22.125 20.0625 22.125 17.53125 C 22.125 16.5 21.789062 15.523438 21.160156 14.710938 C 20.988281 14.492188 20.921875 14.210938 20.980469 13.941406 C 22.386719 7.398438 16.558594 1.621094 10.058594 3.019531 C 9.789062 3.078125 9.507812 3.011719 9.289062 2.839844 C 8.476562 2.210938 7.5 1.875 6.46875 1.875 C 3.9375 1.875 1.875 3.9375 1.875 6.46875 C 1.875 7.5 2.210938 8.476562 2.839844 9.289062 C 3.011719 9.507812 3.078125 9.789062 3.019531 10.058594 C 1.617188 16.589844 7.425781 22.382812 13.941406 20.980469 C 14.210938 20.925781 14.492188 20.988281 14.710938 21.160156 Z M 16.625 14.765625 C 16.625 12.234375 13.425781 11.460938 12.707031 11.242188 C 11.222656 10.785156 9.25 10.277344 9.25 9.234375 C 9.25 8.242188 10.507812 7.40625 12 7.40625 C 13.1875 7.40625 14.265625 7.941406 14.628906 8.710938 C 14.851562 9.179688 15.410156 9.382812 15.878906 9.160156 C 16.34375 8.941406 16.546875 8.382812 16.324219 7.914062 C 15.589844 6.347656 13.753906 5.53125 12 5.53125 C 9.273438 5.53125 7.375 7.304688 7.375 9.234375 C 7.375 11.765625 10.574219 12.539062 11.292969 12.757812 C 12.777344 13.214844 14.75 13.722656 14.75 14.765625 C 14.75 15.757812 13.492188 16.59375 12 16.59375 C 10.8125 16.59375 9.734375 16.058594 9.371094 15.289062 C 9.148438 14.820312 8.589844 14.617188 8.121094 14.839844 C 7.65625 15.058594 7.453125 15.617188 7.675781 16.085938 C 8.410156 17.652344 10.246094 18.46875 12 18.46875 C 14.726562 18.46875 16.625 16.695312 16.625 14.765625 Z M 16.625 14.765625 "/>
</g>
</svg>
